<?xml version="1.0" encoding="UTF-8"?>
<svg id="Layer_2" data-name="Layer 2" xmlns="http://www.w3.org/2000/svg" viewBox="0 0 516.34 98.91">
  <defs>
    <style>
      .cls-1 {
        fill: #0061f1;
      }

      .cls-2 {
        fill: #161616;
      }
    </style>
  </defs>
  <g id="dsgn">
    <g>
      <g>
        <path class="cls-2" d="M2.46,10c1.64-3.08,3.97-5.47,7-7.19C12.48,1.09,15.95.23,19.88.23c4.98,0,9.18,1.33,12.57,3.99,3.4,2.66,5.59,6.28,6.57,10.85h-11.95c-.72-1.51-1.71-2.66-2.97-3.45-1.27-.79-2.73-1.19-4.39-1.19-2.57,0-4.62.92-6.15,2.75-1.53,1.83-2.29,4.28-2.29,7.33s.76,5.56,2.29,7.39c1.53,1.83,3.58,2.75,6.15,2.75,1.66,0,3.12-.4,4.39-1.19,1.26-.79,2.26-1.94,2.97-3.45h11.95c-.98,4.57-3.17,8.18-6.57,10.85-3.4,2.66-7.59,3.99-12.57,3.99-3.93,0-7.4-.86-10.42-2.58-3.02-1.72-5.35-4.12-7-7.19-1.64-3.08-2.46-6.6-2.46-10.56s.82-7.43,2.46-10.51Z"/>
        <path class="cls-2" d="M62.77,40.55l-7.93-14.73h-1.19v14.73h-11.1V.62h17.5c3.21,0,5.93.56,8.16,1.67,2.23,1.11,3.91,2.64,5.04,4.59,1.13,1.95,1.7,4.13,1.7,6.54,0,2.72-.75,5.11-2.24,7.16-1.49,2.06-3.67,3.52-6.54,4.39l9.01,15.58h-12.4ZM53.65,18.24h5.49c1.51,0,2.64-.36,3.4-1.08.75-.72,1.13-1.76,1.13-3.12,0-1.28-.39-2.29-1.16-3.03-.77-.74-1.9-1.1-3.37-1.1h-5.49v8.33Z"/>
        <path class="cls-2" d="M138.93,34.04h-14.16l-2.15,6.51h-11.67L125.51.62h12.8l14.5,39.93h-11.72l-2.15-6.51ZM136.15,25.54l-4.3-12.91-4.25,12.91h8.55Z"/>
        <path class="cls-2" d="M180.18.62v8.84h-10.65v31.1h-11.1V9.46h-10.54V.62h32.28Z"/>
        <path class="cls-2" d="M193.05.62v39.93h-11.1V.62h11.1Z"/>
        <path class="cls-2" d="M236.26.62l-13.76,39.93h-14.22L194.46.62h11.89l9.06,28.83L224.42.62h11.84Z"/>
        <path class="cls-1" d="M229.01,40.55h39.65v-8.89h-36.6l-3.06,8.89ZM242.77.63l-3.06,8.89h28.96V.63h-25.89ZM268.67,16.03h-31.19l-2.91,8.44h34.1v-8.44Z"/>
        <path class="cls-1" d="M118.81.63h-39.65v8.89h36.42s3.24-8.89,3.24-8.89ZM104.27,40.55l3.24-8.89h-28.36v8.89h25.12ZM79.15,25.15h30.71s3.09-8.44,3.09-8.44h-33.8v8.44Z"/>
        <path class="cls-2" d="M319.52,3.14c3.15,1.68,5.58,4.03,7.28,7.05,1.7,3.02,2.55,6.48,2.55,10.37s-.86,7.29-2.58,10.31c-1.72,3.02-4.15,5.39-7.31,7.11-3.15,1.72-6.81,2.58-10.96,2.58h-15.8V.62h15.8c4.19,0,7.86.84,11.02,2.52ZM315.3,28.09c1.85-1.77,2.78-4.29,2.78-7.53s-.93-5.82-2.78-7.62c-1.85-1.79-4.4-2.69-7.65-2.69h-3.85v20.5h3.85c3.25,0,5.8-.89,7.65-2.66Z"/>
        <path class="cls-2" d="M344.06.62v39.93h-11.1V.62h11.1Z"/>
        <path class="cls-2" d="M352.9,37.64c-2.98-2.21-4.59-5.37-4.81-9.49h11.84c.11,1.4.53,2.42,1.25,3.06.72.64,1.64.96,2.78.96,1.02,0,1.86-.25,2.52-.76.66-.51.99-1.22.99-2.12,0-1.17-.55-2.08-1.64-2.72-1.1-.64-2.87-1.36-5.32-2.15-2.61-.87-4.71-1.71-6.32-2.52-1.61-.81-3-2-4.19-3.57-1.19-1.57-1.78-3.62-1.78-6.15s.64-4.77,1.93-6.6c1.28-1.83,3.06-3.22,5.32-4.16,2.27-.94,4.83-1.42,7.7-1.42,4.64,0,8.35,1.09,11.13,3.26,2.78,2.17,4.26,5.22,4.45,9.15h-12.06c-.04-1.21-.41-2.11-1.1-2.72-.7-.6-1.6-.91-2.69-.91-.83,0-1.51.25-2.04.74-.53.49-.79,1.19-.79,2.1,0,.76.29,1.41.88,1.95.59.55,1.31,1.02,2.18,1.42.87.4,2.15.9,3.85,1.5,2.53.87,4.62,1.73,6.26,2.58,1.64.85,3.06,2.04,4.25,3.57s1.78,3.46,1.78,5.81-.59,4.51-1.78,6.4c-1.19,1.89-2.91,3.38-5.15,4.47-2.25,1.1-4.9,1.64-7.96,1.64-4.64,0-8.46-1.1-11.44-3.31Z"/>
        <path class="cls-2" d="M412.98,20.53c-1.11,1.98-2.79,3.57-5.04,4.76-2.25,1.19-4.99,1.78-8.24,1.78h-5.49v13.48h-11.1V.62h16.6c3.21,0,5.94.57,8.18,1.7,2.25,1.13,3.94,2.7,5.07,4.7,1.13,2,1.7,4.3,1.7,6.91,0,2.42-.56,4.62-1.67,6.6ZM403.33,13.93c0-2.91-1.57-4.36-4.7-4.36h-4.42v8.67h4.42c3.13,0,4.7-1.43,4.7-4.3Z"/>
        <path class="cls-2" d="M428.06,32.06h12.4v8.5h-23.51V.62h11.1v31.43Z"/>
        <path class="cls-2" d="M469.1,34.04h-14.16l-2.15,6.51h-11.67L455.68.62h12.8l14.5,39.93h-11.72l-2.15-6.51ZM466.33,25.54l-4.3-12.91-4.25,12.91h8.55Z"/>
        <path class="cls-2" d="M516.34.62l-14.05,27.24v12.69h-11.16v-12.69l-14.05-27.24h12.69l7.02,15.41,7.02-15.41h12.52Z"/>
      </g>
      <g>
        <g>
          <path class="cls-2" d="M57.91,58.57l-9.8,39.95h-13.66l-5.5-24.48-5.61,24.48h-13.66L0,58.57h12.01l4.65,27.31,6.29-27.31h12.18l6.12,27.08,4.65-27.08h12.01Z"/>
          <path class="cls-2" d="M67.88,96.28c-3.14-1.76-5.62-4.19-7.45-7.31-1.83-3.12-2.75-6.64-2.75-10.57s.92-7.45,2.75-10.57c1.83-3.12,4.32-5.54,7.45-7.28,3.14-1.74,6.57-2.61,10.31-2.61s7.22.87,10.34,2.61c3.12,1.74,5.58,4.16,7.39,7.28,1.81,3.12,2.72,6.64,2.72,10.57s-.91,7.45-2.72,10.57c-1.81,3.12-4.29,5.55-7.42,7.31-3.14,1.76-6.57,2.63-10.31,2.63s-7.18-.88-10.31-2.63ZM84.9,85.82c1.64-1.85,2.46-4.32,2.46-7.42s-.82-5.68-2.46-7.51c-1.64-1.83-3.88-2.75-6.71-2.75s-5.12.92-6.74,2.75c-1.62,1.83-2.44,4.33-2.44,7.51s.81,5.62,2.44,7.45c1.62,1.83,3.87,2.75,6.74,2.75s5.07-.93,6.71-2.78Z"/>
          <path class="cls-2" d="M122.3,98.51l-7.93-14.73h-1.19v14.73h-11.11v-39.95h17.51c3.21,0,5.93.56,8.16,1.67,2.23,1.11,3.91,2.64,5.04,4.59,1.13,1.95,1.7,4.13,1.7,6.54,0,2.72-.75,5.11-2.24,7.17-1.49,2.06-3.67,3.52-6.54,4.39l9.01,15.58h-12.41ZM113.18,76.19h5.5c1.51,0,2.64-.36,3.4-1.08.76-.72,1.13-1.76,1.13-3.12,0-1.28-.39-2.29-1.16-3.03-.77-.74-1.9-1.1-3.37-1.1h-5.5v8.33Z"/>
          <path class="cls-2" d="M161.8,98.51l-12.52-17.51v17.51h-11.11v-39.95h11.11v17.23l12.41-17.23h12.81l-14.68,19.38,15.41,20.57h-13.43Z"/>
          <path class="cls-2" d="M178.92,95.6c-2.98-2.21-4.59-5.37-4.82-9.49h11.84c.11,1.4.53,2.42,1.25,3.06.72.64,1.64.96,2.78.96,1.02,0,1.86-.26,2.52-.76.66-.51.99-1.22.99-2.12,0-1.17-.55-2.08-1.64-2.72-1.1-.64-2.87-1.36-5.33-2.15-2.61-.87-4.71-1.71-6.32-2.52-1.61-.81-3-2-4.19-3.57-1.19-1.57-1.78-3.62-1.78-6.15s.64-4.77,1.93-6.6c1.28-1.83,3.06-3.22,5.33-4.16,2.27-.94,4.83-1.42,7.71-1.42,4.65,0,8.36,1.09,11.13,3.26,2.78,2.17,4.26,5.22,4.45,9.15h-12.07c-.04-1.21-.41-2.12-1.1-2.72-.7-.6-1.6-.91-2.69-.91-.83,0-1.51.25-2.04.74-.53.49-.79,1.19-.79,2.1,0,.76.29,1.41.88,1.95.59.55,1.31,1.02,2.18,1.42.87.4,2.15.9,3.85,1.5,2.53.87,4.62,1.73,6.26,2.58,1.64.85,3.06,2.04,4.25,3.57s1.78,3.47,1.78,5.81-.59,4.51-1.78,6.4c-1.19,1.89-2.91,3.38-5.16,4.48-2.25,1.1-4.9,1.64-7.96,1.64-4.65,0-8.46-1.11-11.45-3.31Z"/>
          <path class="cls-2" d="M230.08,58.57v39.95h-11.11v-39.95h11.11Z"/>
          <path class="cls-2" d="M272.47,98.51h-11.11l-14.79-22.33v22.33h-11.11v-39.95h11.11l14.79,22.61v-22.61h11.11v39.95Z"/>
          <path class="cls-2" d="M278.61,67.95c1.64-3.08,3.98-5.48,7-7.2,3.02-1.72,6.5-2.58,10.43-2.58,4.99,0,9.18,1.33,12.58,3.99,3.4,2.66,5.59,6.28,6.57,10.85h-11.96c-.72-1.51-1.71-2.66-2.97-3.46-1.27-.79-2.73-1.19-4.39-1.19-2.57,0-4.62.92-6.15,2.75-1.53,1.83-2.29,4.28-2.29,7.34s.76,5.56,2.29,7.39c1.53,1.83,3.58,2.75,6.15,2.75,1.66,0,3.13-.4,4.39-1.19,1.27-.79,2.26-1.95,2.97-3.46h11.96c-.98,4.57-3.17,8.19-6.57,10.85-3.4,2.66-7.59,3.99-12.58,3.99-3.93,0-7.4-.86-10.43-2.58-3.02-1.72-5.35-4.12-7-7.2-1.64-3.08-2.46-6.6-2.46-10.57s.82-7.43,2.46-10.51Z"/>
        </g>
        <rect class="cls-1" x="320.03" y="87.41" width="11.5" height="11.5"/>
      </g>
    </g>
  </g>
</svg>